<?xml version="1.0"?>
<svg width="210" height="297" xmlns="http://www.w3.org/2000/svg" xmlns:svg="http://www.w3.org/2000/svg">

 <metadata id="metadata5">image/svg+xml</metadata>
 <g>
  <title>Layer 1</title>
  <g id="layer1">
   <rect y="468.23398" x="262.85715" height="94.285744" width="160" id="rect14"/>SPL
   <path fill="#ffff00" stroke-width="0.264583" d="m155.72619,113.30357l-8.47737,-10.37123l-13.34952,1.10385l7.24397,-11.26735l-5.17504,-12.35504l12.95439,3.40763l10.15117,-8.73968l0.76227,13.37337l11.44882,6.95363l-12.48328,4.85757l-3.07541,13.03725z" id="path18"/>
   <path fill="#ffff00" stroke-width="0.264583" d="m70.30357,100.45238l-13.91428,-0.97023l-8.68747,10.91221l-3.37701,-13.53308l-13.0627,-4.89022l11.82717,-7.39368l0.61428,-13.93453l10.6866,8.96354l13.44235,-3.72179l-5.22249,12.93345l7.69355,11.63433z" id="path20"/>
   <path fill="#ffff00" stroke-width="0.264583" d="m72.57143,177.55952l-8.58806,10.95618l4.15674,13.28586l-13.0738,-4.78208l-11.3511,8.05885l0.508,-13.91167l-11.1721,-8.30521l13.38776,-3.8158l4.44636,-13.19176l7.76609,11.55337l13.92011,0.15226z" id="path22"/>
   <path fill="#ffff00" stroke-width="0.264583" d="m173.11311,194.94641l-11.89146,-1.40874l-7.90194,8.99726l-2.33486,-11.74478l-10.99874,-4.73488l10.44843,-5.84993l1.10435,-11.92358l8.79235,8.12933l11.68126,-2.6343l-5.01446,10.87413l6.11507,10.29549z" id="path24"/></g>
  <text xml:space="preserve" text-anchor="middle" font-family="serif" font-size="24" id="svg_1" y="140" x="98" stroke-width="0" stroke="#000000" fill="#000000">SPL</text>
 </g>
</svg>